<?xml version="1.0" encoding="UTF-8" standalone="no"?>
<!-- Uploaded to: SVG Repo, www.svgrepo.com, Generator: SVG Repo Mixer Tools -->

<svg
   width="800px"
   height="800px"
   viewBox="0 0 24 24"
   fill="none"
   version="1.1"
   id="svg1"
   sodipodi:docname="js-file.svg"
   inkscape:version="1.3 (0e150ed6c4, 2023-07-21)"
   xmlns:inkscape="http://www.inkscape.org/namespaces/inkscape"
   xmlns:sodipodi="http://sodipodi.sourceforge.net/DTD/sodipodi-0.dtd"
   xmlns="http://www.w3.org/2000/svg"
   xmlns:svg="http://www.w3.org/2000/svg">
  <defs
     id="defs1" />
  <sodipodi:namedview
     id="namedview1"
     pagecolor="#ffffff"
     bordercolor="#000000"
     borderopacity="0.25"
     inkscape:showpageshadow="2"
     inkscape:pageopacity="0.0"
     inkscape:pagecheckerboard="0"
     inkscape:deskcolor="#d1d1d1"
     inkscape:zoom="0.39880408"
     inkscape:cx="-171.76354"
     inkscape:cy="603.05301"
     inkscape:window-width="1920"
     inkscape:window-height="1043"
     inkscape:window-x="0"
     inkscape:window-y="0"
     inkscape:window-maximized="1"
     inkscape:current-layer="svg1" />
  <path
     fill-rule="evenodd"
     clip-rule="evenodd"
     d="m 9.0367296,1.184019 c 0.18754,-0.18752996 0.44189,-0.29288996 0.70711,-0.29288996 H 17.74384 c 1.6569,0 3,1.34314996 3,2.99999996 v 5 c 0,0.55228 -0.4477,1 -1,1 -0.5523,0 -1,-0.44772 -1,-1 v -5 c 0,-0.55228 -0.4477,-1 -1,-1 h -7 v 5 c 0,0.55228 -0.4477,1 -1.0000004,1 h -5 v 11 c 0,0.5523 0.44772,1 1,1 h 1 c 0.55228,0 1,0.4477 1,1 0,0.5523 -0.44772,1 -1,1 h -1 c -1.65685,0 -3,-1.3431 -3,-3 v -12 c 0,-0.26522 0.10536,-0.51957 0.29289,-0.70711 z m -2.87868,5.70711 h 2.58579 v -2.58579 z"
     fill="#000000"
     id="path1"
     sodipodi:nodetypes="csssssssscsscsssssssscccccc"
     style="fill:#e1dbdb;fill-opacity:0.5234375" />
  <rect
     width="13.459293"
     height="13.459293"
     fill="#ffffff"
     fill-opacity="0"
     id="rect1"
     x="8.4553232"
     y="9.9182539"
     style="stroke-width:0.280402" />
  <rect
     width="16.354094"
     height="21.188471"
     fill="#ffffff"
     fill-opacity="0"
     id="rect1-2"
     x="1.77"
     y="8.6099997"
     style="stroke-width:0.5" />
  <path
     d="m 14.398709,12.2986 h 4.104653 v 4.104652 h -4.104653 z"
     fill="#2F88FF"
     stroke="#000000"
     stroke-width="1.36822"
     stroke-linecap="round"
     stroke-linejoin="round"
     id="path2"
     style="fill:#2c879d;fill-opacity:1" />
  <path
     d="m 10.294057,12.2986 h 4.104652 v 4.104652 h -4.104652 z"
     fill="#2F88FF"
     stroke="#000000"
     stroke-width="1.36822"
     stroke-linecap="round"
     stroke-linejoin="round"
     id="path3"
     style="fill:#2c879d;fill-opacity:1" />
  <path
     d="m 10.294057,16.403252 h 4.104652 v 4.104653 h -4.104652 z"
     fill="#2F88FF"
     stroke="#000000"
     stroke-width="1.36822"
     stroke-linecap="round"
     stroke-linejoin="round"
     id="path5"
     style="fill:#2c879d;fill-opacity:1" />
</svg>
