<?xml version="1.0" encoding="UTF-8" standalone="no"?>
<!-- Uploaded to: SVG Repo, www.svgrepo.com, Generator: SVG Repo Mixer Tools -->

<svg
   height="800px"
   width="800px"
   version="1.1"
   id="_x32_"
   viewBox="0 0 512 512"
   xml:space="preserve"
   sodipodi:docname="xml-file.svg"
   inkscape:version="1.3 (0e150ed6c4, 2023-07-21)"
   xmlns:inkscape="http://www.inkscape.org/namespaces/inkscape"
   xmlns:sodipodi="http://sodipodi.sourceforge.net/DTD/sodipodi-0.dtd"
   xmlns="http://www.w3.org/2000/svg"
   xmlns:svg="http://www.w3.org/2000/svg"><defs
   id="defs4" /><sodipodi:namedview
   id="namedview4"
   pagecolor="#ffffff"
   bordercolor="#000000"
   borderopacity="0.25"
   inkscape:showpageshadow="2"
   inkscape:pageopacity="0.0"
   inkscape:pagecheckerboard="0"
   inkscape:deskcolor="#d1d1d1"
   inkscape:zoom="1.04625"
   inkscape:cx="399.5221"
   inkscape:cy="400"
   inkscape:window-width="1920"
   inkscape:window-height="1043"
   inkscape:window-x="0"
   inkscape:window-y="0"
   inkscape:window-maximized="1"
   inkscape:current-layer="g4" />&#10;<style
   type="text/css"
   id="style1">&#10;	.st0{fill:#000000;}&#10;</style>&#10;<g
   id="g4">&#10;	&#10;	<path
   class="st0"
   d="m 234.03784,344.31887 21.051,-30.701 c 1.361,-2.032 2.032,-4.07 2.032,-6.109 0,-5.027 -3.938,-8.965 -9.37,-8.965 -3.394,0 -6.11,1.494 -8.281,4.754 l -16.575,24.452 h -0.265 l -16.576,-24.452 c -2.172,-3.26 -4.888,-4.754 -8.281,-4.754 -5.432,0 -9.37,3.938 -9.37,8.965 0,2.039 0.67,4.077 2.031,6.109 l 20.919,30.701 -22.546,33.138 c -1.355,2.039 -2.039,4.077 -2.039,6.116 0,5.027 3.938,8.965 9.371,8.965 3.393,0 6.116,-1.494 8.288,-4.755 l 18.203,-26.896 h 0.265 l 18.203,26.896 c 2.171,3.261 4.894,4.755 8.287,4.755 5.432,0 9.37,-3.938 9.37,-8.965 0,-2.039 -0.677,-4.078 -2.039,-6.116 z"
   id="path2"
   style="fill:#e1dbdb;fill-opacity:0.521569" />&#10;	<path
   class="st0"
   d="m 347.05184,298.54387 c -5.977,0 -9.238,3.261 -12.226,10.326 l -19.284,44.547 h -0.545 l -19.697,-44.547 c -3.121,-7.066 -6.382,-10.326 -12.358,-10.326 -6.654,0 -11.004,4.622 -11.004,11.954 v 72.398 c 0,6.109 3.806,9.643 9.244,9.643 5.153,0 8.958,-3.534 8.958,-9.643 v -44.554 h 0.678 l 14.397,33.138 c 2.856,6.522 5.167,8.428 9.782,8.428 4.615,0 6.927,-1.906 9.782,-8.428 l 14.257,-33.138 h 0.684 v 44.554 c 0,6.109 3.666,9.643 9.098,9.643 5.432,0 9.098,-3.534 9.098,-9.643 v -72.398 c 0,-7.332 -4.21,-11.954 -10.864,-11.954 z"
   id="path3"
   style="fill:#e1dbdb;fill-opacity:0.521569" />&#10;	<path
   class="st0"
   d="m 429.24684,373.93087 h -32.873 c -0.544,0 -0.824,-0.272 -0.824,-0.816 v -63.979 c 0,-6.381 -4.203,-10.592 -9.915,-10.592 -5.837,0 -10.04,4.21 -10.04,10.592 v 72.532 c 0,5.976 3.938,10.054 10.04,10.054 h 43.611 c 6.102,0 10.04,-3.666 10.04,-8.965 10e-4,-5.161 -3.937,-8.826 -10.039,-8.826 z"
   id="path4"
   style="fill:#e1dbdb;fill-opacity:0.521569" />&#10;<path
   fill-rule="evenodd"
   clip-rule="evenodd"
   d="M 198.24832,27.368319 C 202.24917,23.36768 207.6753,21.12 213.33333,21.12 H 384 c 35.3472,0 64,28.653865 64,63.999998 V 191.78666 c 0,11.78198 -9.55093,21.33334 -21.33333,21.33334 -11.7824,0 -21.33333,-9.55136 -21.33333,-21.33334 V 85.119998 C 405.33334,73.338025 395.7824,63.786665 384,63.786665 H 234.66667 V 170.45333 c 0,11.78197 -9.55093,21.33333 -21.33334,21.33333 H 106.66667 v 234.66667 c 0,11.7824 9.55136,21.33333 21.33333,21.33333 h 21.33333 c 11.78198,0 21.33333,9.55093 21.33333,21.33333 0,11.7824 -9.55135,21.33333 -21.33333,21.33333 H 128 c -35.346134,0 -64,-28.65279 -64,-63.99999 v -256 c 0,-5.65803 2.24768,-11.08416 6.24832,-15.08501 z M 136.83648,149.12 H 192 V 93.956478 Z"
   fill="#000000"
   id="path4-1"
   sodipodi:nodetypes="csssssssscsscsssssssscccccc"
   style="fill:#e1dbdb;fill-opacity:0.523438;stroke-width:21.3333" /></g>&#10;</svg>
